Coordinates
version=1
nRows=15
nColumns=46
inDegrees=yes

Units are S.I. units (second, meters, Newtons, ...)
Angles are in degrees.

endheader
time	pelvis_tilt	pelvis_list	pelvis_rotation	pelvis_tx	pelvis_ty	pelvis_tz	bb_angle	bb_tx	bb_ty	bb_tz	hip_flexion_r	hip_adduction_r	hip_rotation_r	knee_angle_r	knee_angle_r_beta	ankle_angle_r	subtalar_angle_r	mtp_angle_r	crank_angle_r	hip_flexion_l	hip_adduction_l	hip_rotation_l	knee_angle_l	knee_angle_l_beta	ankle_angle_l	subtalar_angle_l	mtp_angle_l	crank_angle_l	lumbar_extension	lumbar_bending	lumbar_rotation	arm_flex_r	arm_add_r	arm_rot_r	elbow_flex_r	pro_sup_r	wrist_flex_r	wrist_dev_r	arm_flex_l	arm_add_l	arm_rot_l	elbow_flex_l	pro_sup_l	wrist_flex_l	wrist_dev_l
      7.50500000	    -16.98146488	      4.34661645	     -6.26099682	      0.19326190	      1.04777500	     -0.22622481	      0.00000000	      0.50000000	      0.00000000	      0.25000000	     54.45320847	     -4.17682105	      3.47299910	     45.74948114	      0.79847908	     -9.51625637	     -6.34444454	      0.00000000	      0.00000000	     69.13516494	     -6.14129634	     -2.29758047	    109.26581499	      1.90704823	    -12.60440872	    -16.93882356	      0.00000000	      0.00000000	    -65.68824207	     -2.17200653	     -7.73370405	     80.12537695	    -14.27998102	     38.73029713	     85.43559130	     51.24611438	      0.00000000	      0.00000000	     58.71711834	    -33.06481684	      5.46546548	    101.22823298	     51.24056679	      0.00000000	      0.00000000
      7.51000000	    -16.90876895	      4.56760632	     -5.90047927	      0.19339712	      1.04784482	     -0.22569024	      0.00000000	      0.50000000	      0.00000000	      0.25000000	     52.87648834	     -4.67417440	      3.26015736	     43.71260852	      0.76292894	    -11.06017600	     -6.35112388	      0.00000000	      0.00000000	     70.56223892	     -5.83683818	     -2.09593740	    110.80703204	      1.93394754	    -12.13664670	    -16.95426298	      0.00000000	      0.00000000	    -65.66582931	     -2.24443896	     -7.96057065	     79.69835314	    -14.60526668	     38.41344827	     85.65783232	     51.26425211	      0.00000000	      0.00000000	     59.11396790	    -33.16629560	      6.03521366	    100.93773129	     51.26156345	      0.00000000	      0.00000000
      7.51500000	    -16.93399593	      4.72320241	     -5.45271831	      0.19335365	      1.04816651	     -0.22518630	      0.00000000	      0.50000000	      0.00000000	      0.25000000	     51.45047335	     -5.19404053	      2.81920343	     41.77720191	      0.72914973	    -12.77005842	     -6.06954114	      0.00000000	      0.00000000	     72.12222640	     -5.47338309	     -1.79523753	    112.19264542	      1.95813106	    -11.76916546	    -17.07875861	      0.00000000	      0.00000000	    -65.58255715	     -2.24910494	     -8.28581389	     79.37851229	    -14.80713214	     38.18899548	     85.82771260	     51.28631998	      0.00000000	      0.00000000	     59.50422860	    -33.28446087	      6.55446864	    100.73644068	     51.29360572	      0.00000000	      0.00000000
      7.52000000	    -17.09985971	      5.03665396	     -4.96877459	      0.19310714	      1.04840909	     -0.22489367	      0.00000000	      0.50000000	      0.00000000	      0.25000000	     50.33007350	     -5.84825067	      2.52088916	     40.12300711	      0.70027858	    -14.10234231	     -5.60996975	      0.00000000	      0.00000000	     73.81389416	     -4.99986522	     -1.69375901	    113.45776267	      1.98021152	    -11.21761822	    -17.23631080	      0.00000000	      0.00000000	    -65.38059824	     -2.33963818	     -8.86737978	     79.19956754	    -15.03376545	     37.99315819	     85.82687771	     51.26788009	      0.00000000	      0.00000000	     59.81542431	    -33.31686759	      6.72144571	    100.66347117	     51.29413194	      0.00000000	      0.00000000
      7.52500000	    -17.28393794	      4.89667307	     -4.25759359	      0.19260287	      1.04897268	     -0.22518306	      0.00000000	      0.50000000	      0.00000000	      0.25000000	     49.10124207	     -6.32704528	      1.64306788	     38.34027868	      0.66916410	    -16.46619060	     -5.99707404	      0.00000000	      0.00000000	     75.62299474	     -4.45220852	     -1.06044739	    114.64215443	      2.00088306	    -10.66041301	    -17.33652525	      0.00000000	      0.00000000	    -65.25069209	     -1.89884576	     -8.88292275	     78.95053459	    -15.17104978	     37.47345132	     85.82709176	     51.23856031	      0.00000000	      0.00000000	     60.47524679	    -33.52878209	      7.64612850	    100.41253181	     51.36201710	      0.00000000	      0.00000000
      7.53000000	    -17.49363416	      4.88150387	     -3.52037128	      0.19230545	      1.05005072	     -0.22456976	      0.00000000	      0.50000000	      0.00000000	      0.25000000	     47.88007502	     -6.82191598	      0.87431426	     36.59674978	      0.63873378	    -18.48842859	     -6.08018867	      0.00000000	      0.00000000	     77.31557154	     -3.93535101	     -0.61463255	    115.56814494	      2.01704464	    -10.06956978	    -17.34521056	      0.00000000	      0.00000000	    -65.14877429	     -1.68682877	     -9.11428703	     78.66105065	    -15.29695073	     36.88665436	     85.89278063	     51.22840397	      0.00000000	      0.00000000	     61.28641345	    -33.72132401	      8.61492559	    100.04541120	     51.42679185	      0.00000000	      0.00000000
      7.53500000	    -17.78572629	      4.91781414	     -2.79260214	      0.19177992	      1.05097485	     -0.22459614	      0.00000000	      0.50000000	      0.00000000	      0.25000000	     46.89464797	     -7.39675546	      0.13159695	     35.09682458	      0.61255515	    -20.46596750	     -5.90366574	      0.00000000	      0.00000000	     79.08701718	     -3.29992339	     -0.29176998	    116.36498592	      2.03095214	     -9.08896194	    -17.48088229	      0.00000000	      0.00000000	    -64.94229915	     -1.41983405	     -9.48534495	     78.47265948	    -15.43346939	     36.40945994	     85.82304814	     51.20235780	      0.00000000	      0.00000000	     61.93644278	    -33.76212139	      9.32929185	     99.81518794	     51.48340926	      0.00000000	      0.00000000
      7.54000000	    -18.16126445	      5.16294681	     -2.10530631	      0.19109040	      1.05199033	     -0.22447783	      0.00000000	      0.50000000	      0.00000000	      0.25000000	     46.12658270	     -8.10973386	     -0.45760784	     33.74720006	      0.58899975	    -22.22816308	     -5.25477269	      0.00000000	      0.00000000	     80.85723966	     -2.62847556	     -0.24962448	    116.93725560	      2.04094013	     -8.88602416	    -17.33177059	      0.00000000	      0.00000000	    -64.69817896	     -1.32709172	    -10.06269850	     78.48158006	    -15.53786481	     36.20513204	     85.75854751	     51.18045401	      0.00000000	      0.00000000	     62.45643684	    -33.75504335	      9.54309454	     99.81326905	     51.50505482	      0.00000000	      0.00000000
      7.54500000	    -18.59866080	      5.15468069	     -1.40167404	      0.19041301	      1.05281692	     -0.22451453	      0.00000000	      0.50000000	      0.00000000	      0.25000000	     45.41570924	     -8.61469938	     -1.25008298	     32.50152853	      0.56725868	    -24.11565104	     -5.03332628	      0.00000000	      0.00000000	     82.68240916	     -1.98786787	      0.07740316	    117.43235829	      2.04958130	     -8.54919476	    -17.37746167	      0.00000000	      0.00000000	    -64.41001051	     -1.05722114	    -10.49273747	     78.48289088	    -15.51706746	     35.98494954	     85.65687052	     51.15086402	      0.00000000	      0.00000000	     62.98441616	    -33.76085428	      9.87142938	     99.79879834	     51.53669148	      0.00000000	      0.00000000
      7.55000000	    -18.90856520	      4.79433479	     -0.69278883	      0.18965409	      1.05388555	     -0.22446918	      0.00000000	      0.50000000	      0.00000000	      0.25000000	     44.51902564	     -8.75725800	     -2.22002008	     31.28011153	      0.54594094	    -26.40514712	     -5.63133298	      0.00000000	      0.00000000	     84.46212068	     -1.41456485	      0.78854175	    117.87054813	      2.05722916	     -8.25542685	    -17.16231312	      0.00000000	      0.00000000	    -64.21660330	     -0.61417854	    -10.51156405	     78.44637428	    -15.35849801	     35.36109419	     85.34998734	     51.06699678	      0.00000000	      0.00000000	     63.64527826	    -33.88311774	     10.90843678	     99.58521405	     51.62447671	      0.00000000	      0.00000000
      7.55500000	    -19.26127958	      4.65920794	     -0.06598414	      0.18890860	      1.05482476	     -0.22413654	      0.00000000	      0.50000000	      0.00000000	      0.25000000	     43.85096214	     -9.03119681	     -2.99153342	     30.34849101	      0.52968109	    -28.17985900	     -5.73256887	      0.00000000	      0.00000000	     86.13609278	     -0.85099647	      1.23806861	    118.12639957	      2.06169461	     -7.68342626	    -16.88551522	      0.00000000	      0.00000000	    -63.98869999	     -0.40239738	    -10.73502439	     78.42370605	    -15.25926151	     34.97393027	     85.08100230	     51.01505306	      0.00000000	      0.00000000	     64.33877296	    -33.94823871	     11.66138588	     99.45509274	     51.69603592	      0.00000000	      0.00000000
      7.56000000	    -19.66628838	      4.68528099	      0.50696982	      0.18826426	      1.05574878	     -0.22363142	      0.00000000	      0.50000000	      0.00000000	      0.25000000	     43.42090738	     -9.40500632	     -3.58291422	     29.79760610	      0.52006634	    -29.43003032	     -5.49579810	      0.00000000	      0.00000000	     87.74184385	     -0.30276896	      1.48844371	    118.18632896	      2.06274057	     -7.30347036	    -16.69095379	      0.00000000	      0.00000000	    -63.75324754	     -0.21180825	    -11.16796351	     78.57317221	    -15.16773481	     34.89235626	     84.98054689	     50.99722102	      0.00000000	      0.00000000	     64.76943545	    -33.95730681	     11.79964397	     99.45420906	     51.71069535	      0.00000000	      0.00000000
      7.56500000	    -19.98637789	      4.62017792	      1.10361210	      0.18768850	      1.05685863	     -0.22316400	      0.00000000	      0.50000000	      0.00000000	      0.25000000	     42.88273801	     -9.69509147	     -4.24927806	     29.30253739	      0.51142576	    -30.73876656	     -5.63817471	      0.00000000	      0.00000000	     89.20440126	      0.30695527	      1.84556174	    118.08989710	      2.06105752	     -6.98442193	    -16.36944989	      0.00000000	      0.00000000	    -63.59660224	      0.02898811	    -11.45733779	     78.65654946	    -14.99266447	     34.89710009	     84.73414876	     50.96622665	      0.00000000	      0.00000000	     65.19692208	    -33.96379985	     12.04069161	     99.52405046	     51.74810517	      0.00000000	      0.00000000
      7.57000000	    -20.13321546	      4.35323621	      1.43632894	      0.18717516	      1.05803246	     -0.22245250	      0.00000000	      0.50000000	      0.00000000	      0.25000000	     42.25712481	     -9.59925979	     -4.78301737	     29.00519106	      0.50623608	    -31.94803282	     -6.35086018	      0.00000000	      0.00000000	     90.41095148	      0.60718777	      2.42831671	    117.97797604	      2.05910413	     -6.36048939	    -15.56690607	      0.00000000	      0.00000000	    -63.55964763	      0.17713495	    -11.59566507	     78.97158110	    -14.58566828	     34.94165228	     83.82932018	     50.86129955	      0.00000000	      0.00000000	     65.55667784	    -34.35088441	     12.80600212	     99.59603958	     51.86473955	      0.00000000	      0.00000000
      7.57500000	    -20.32851160	      4.33267971	      1.80141183	      0.18673055	      1.05896090	     -0.22192079	      0.00000000	      0.50000000	      0.00000000	      0.25000000	     41.89145046	     -9.79177082	     -5.17348312	     29.16424722	      0.50901214	    -32.48465676	     -6.53210758	      0.00000000	      0.00000000	     91.53486254	      1.06288819	      2.72249363	    117.67997033	      2.05390295	     -6.02942447	    -15.31643284	      0.00000000	      0.00000000	    -63.54645370	     -0.03642416	    -11.98888188	     79.03374907	    -14.77566859	     34.91452815	     83.57392836	     50.83229256	      0.00000000	      0.00000000	     66.10592594	    -34.23244190	     13.02101041	     99.86189968	     51.93003131	      0.00000000	      0.00000000
